HIERARCHY
ROOT Hips
{
	OFFSET -0.001795 -0.223333 0.028219
	CHANNELS 6 Xposition Yposition Zposition Zrotation Yrotation Xrotation 
	JOINT LeftUpLeg
	{
		OFFSET 0.069520 -0.091406 -0.006815
		CHANNELS 3 Zrotation Yrotation Xrotation
		JOINT LeftLeg
		{
			OFFSET 0.034277 -0.375199 -0.004496
			CHANNELS 3 Zrotation Yrotation Xrotation
			JOINT LeftFoot
			{
				OFFSET -0.013596 -0.397961 -0.043693
				CHANNELS 3 Zrotation Yrotation Xrotation
				JOINT LeftToe
				{
					OFFSET 0.026358 -0.055791 0.119288
					CHANNELS 3 Zrotation Yrotation Xrotation
					End Site
					{
						OFFSET 0.000000 0.000000 0.000000
					}
				}
			}
		}
	}
	JOINT RightUpLeg
	{
		OFFSET -0.067670 -0.090522 -0.004320
		CHANNELS 3 Zrotation Yrotation Xrotation
		JOINT RightLeg
		{
			OFFSET -0.038290 -0.382569 -0.008850
			CHANNELS 3 Zrotation Yrotation Xrotation
			JOINT RightFoot
			{
				OFFSET 0.015774 -0.398415 -0.042312
				CHANNELS 3 Zrotation Yrotation Xrotation
				JOINT RightToe
				{
					OFFSET -0.025372 -0.048144 0.123348
					CHANNELS 3 Zrotation Yrotation Xrotation
					End Site
					{
						OFFSET 0.000000 0.000000 0.000000
					}
				}
			}
		}
	}
	JOINT Spine
	{
		OFFSET -0.002533 0.108963 -0.026696
		CHANNELS 3 Zrotation Yrotation Xrotation
		JOINT Spine1
		{
			OFFSET 0.005487 0.135180 0.001092
			CHANNELS 3 Zrotation Yrotation Xrotation
			JOINT Spine2
			{
				OFFSET 0.001457 0.052922 0.025425
				CHANNELS 3 Zrotation Yrotation Xrotation
				JOINT Neck
				{
					OFFSET -0.002778 0.213870 -0.042857
					CHANNELS 3 Zrotation Yrotation Xrotation
					JOINT Head
					{
						OFFSET 0.005152 0.064970 0.051349
						CHANNELS 3 Zrotation Yrotation Xrotation
						End Site
						{
							OFFSET 0.000000 0.000000 0.000000
						}
					}
				}
				JOINT LeftShoulder
				{
					OFFSET 0.078845 0.121749 -0.034090
					CHANNELS 3 Zrotation Yrotation Xrotation
					JOINT LeftArm
					{
						OFFSET 0.090977 0.030469 -0.008868
						CHANNELS 3 Zrotation Yrotation Xrotation
						JOINT LeftForeArm
						{
							OFFSET 0.259612 -0.012772 -0.027456
							CHANNELS 3 Zrotation Yrotation Xrotation
							JOINT LeftHand
							{
								OFFSET 0.249234 0.008986 -0.001171
								CHANNELS 3 Zrotation Yrotation Xrotation
								End Site
								{
									OFFSET 0.000000 0.000000 0.000000
								}
							}
						}
					}
				}
				JOINT RightShoulder
				{
					OFFSET -0.081759 0.118833 -0.038615
					CHANNELS 3 Zrotation Yrotation Xrotation
					JOINT RightArm
					{
						OFFSET -0.096012 0.032551 -0.009143
						CHANNELS 3 Zrotation Yrotation Xrotation
						JOINT RightForeArm
						{
							OFFSET -0.253742 -0.013329 -0.021401
							CHANNELS 3 Zrotation Yrotation Xrotation
							JOINT RightHand
							{
								OFFSET -0.255298 0.007772 -0.005559
								CHANNELS 3 Zrotation Yrotation Xrotation
								End Site
								{
									OFFSET 0.000000 0.000000 0.000000
								}
							}
						}
					}
				}
			}
		}
	}
}
MOTION
Frames: 6
Frame Time: 0.050000
-0.330053 0.936960 0.294285 1.629153 6.522576 6.810935 11.628061 -0.447267 -13.033046 -6.364333 0.598248 0.956176 4.481274 13.512396 17.164467 0.000000 0.000000 0.000000 -13.316952 0.135137 -4.038050 6.639466 -0.875764 2.611067 -10.179355 -21.515328 29.707949 0.000000 0.000000 0.000000 -4.246174 0.037842 8.742581 2.958888 0.312310 -31.756891 2.366544 -1.880730 24.033362 -7.322526 6.238031 -19.884653 0.000000 0.000000 0.000000 -32.591591 2.468885 -5.384298 -45.483415 0.903769 -7.105303 -20.881610 -29.970639 6.975069 0.000000 0.000000 0.000000 23.849534 10.522656 5.677563 47.904236 -3.612902 -7.972492 12.965342 33.088130 5.105849 0.000000 0.000000 0.000000 
-0.332736 0.936750 0.293169 1.721393 7.109574 6.790016 11.316843 -0.488726 -12.783761 -5.710406 0.516392 0.188539 4.097556 13.088477 17.327514 0.000000 0.000000 0.000000 -13.109646 0.126353 -3.325529 6.568891 -0.849227 1.535682 -10.538994 -21.897363 29.634942 0.000000 0.000000 0.000000 -4.580468 0.070870 8.238115 2.784004 0.330146 -31.289077 2.166697 -1.927584 24.106206 -7.151232 6.204014 -19.025527 0.000000 0.000000 0.000000 -32.370435 2.478010 -5.510146 -45.799555 1.185335 -7.223455 -20.847433 -30.350170 7.038397 0.000000 0.000000 0.000000 23.932577 10.435274 5.760168 48.566833 -3.047339 -7.909491 12.809235 32.821737 5.047096 0.000000 0.000000 0.000000 
-0.334313 0.936910 0.291429 1.787859 7.583743 6.888554 11.299087 -0.510875 -12.741902 -5.645239 0.495032 -0.476884 3.789322 12.777085 17.614532 0.000000 0.000000 0.000000 -13.123636 0.110533 -3.212303 6.759235 -0.875429 1.158217 -10.803530 -22.157458 29.777542 0.000000 0.000000 0.000000 -4.836502 0.091259 8.277011 2.685720 0.338932 -31.096007 2.131097 -1.753909 23.868483 -7.027848 6.195066 -18.310747 0.000000 0.000000 0.000000 -31.610393 2.738461 -5.775043 -46.601291 1.708750 -7.472718 -21.062281 -30.717117 7.152306 0.000000 0.000000 0.000000 23.994328 10.327999 5.852546 49.549256 -2.740954 -7.951110 11.807285 32.541229 4.749605 0.000000 0.000000 0.000000 
-0.334730 0.936969 0.288922 1.741457 7.872729 7.056438 11.382947 -0.525958 -13.269165 -5.669895 0.495223 -0.302167 3.648748 12.646810 17.727454 0.000000 0.000000 0.000000 -12.955072 0.104843 -3.412923 6.643919 -0.860754 1.014062 -10.994434 -22.343412 29.897904 0.000000 0.000000 0.000000 -4.981797 0.103500 8.356011 2.858770 0.303332 -30.821297 2.115287 -1.246494 23.885153 -6.815431 6.150902 -18.080558 0.000000 0.000000 0.000000 -31.228367 2.566166 -5.884132 -46.974581 2.145023 -7.618310 -21.130463 -31.220055 7.243038 0.000000 0.000000 0.000000 23.928456 10.261301 6.046628 50.438764 -1.728596 -7.732756 10.324728 32.132262 4.317462 0.000000 0.000000 0.000000 
-0.334310 0.936870 0.286037 1.686676 7.828021 7.377575 11.421218 -0.533234 -13.790387 -5.680798 0.496126 -0.324751 3.697257 12.740644 17.871237 0.000000 0.000000 0.000000 -12.974660 0.106819 -3.934100 6.674332 -0.862599 0.955915 -11.014198 -22.361296 29.930587 0.000000 0.000000 0.000000 -5.080448 0.114841 8.675870 3.234023 0.241522 -30.864395 1.876257 -0.671124 23.933720 -6.601723 6.078644 -18.506203 0.000000 0.000000 0.000000 -30.959132 2.683928 -6.149027 -47.480991 2.770747 -7.877487 -21.080927 -31.832566 7.341562 0.000000 0.000000 0.000000 24.442583 10.337589 6.351064 50.899315 -0.719777 -7.453608 9.100796 31.857838 3.979058 0.000000 0.000000 0.000000 
-0.333426 0.936410 0.283627 1.477696 7.775781 7.687902 11.620241 -0.530870 -14.524711 -5.714004 0.504818 0.075824 3.810375 12.878693 17.789213 0.000000 0.000000 0.000000 -12.764318 0.120061 -4.315934 6.548196 -0.837281 0.687607 -11.035882 -22.387672 29.910398 0.000000 0.000000 0.000000 -5.422462 0.151141 8.798837 3.947372 0.115230 -30.781226 1.817694 -0.220065 23.844329 -6.677998 6.177246 -18.509955 0.000000 0.000000 0.000000 -30.884774 2.566462 -6.246098 -47.645263 3.533885 -8.122201 -20.597431 -32.509776 7.323685 0.000000 0.000000 0.000000 25.001254 10.445720 6.633736 50.724421 0.305293 -7.060697 7.512459 31.552828 3.525481 0.000000 0.000000 0.000000 
